<?xml version="1.0" encoding="iso-8859-1"?>
<!-- Generator: Adobe Illustrator 19.0.0, SVG Export Plug-In . SVG Version: 6.00 Build 0)  -->
<svg version="1.1" id="Capa_1" xmlns="http://www.w3.org/2000/svg" xmlns:xlink="http://www.w3.org/1999/xlink" x="0px" y="0px"
	 viewBox="0 0 512 512" style="enable-background:new 0 0 512 512;" xml:space="preserve">
<path style="fill:#303C42;" d="M256,0C162.927,0,64,26.167,64,74.667v362.667C64,485.833,162.927,512,256,512s192-26.167,192-74.667
	V74.667C448,26.167,349.073,0,256,0z"/>
<g>
	<path style="fill:#BBDEFB;" d="M256,21.333c105.74,0,170.667,31.063,170.667,53.333S361.74,128,256,128
		S85.333,96.938,85.333,74.667S150.26,21.333,256,21.333z"/>
	<path style="fill:#BBDEFB;" d="M256,490.667c-105.74,0-170.667-31.063-170.667-53.333c0-3.854,1.875-7.906,5.563-12.063
		c3.906-4.406,3.51-11.146-0.896-15.063c-1.375-1.223-2.995-1.88-4.667-2.273V110.124c34.034,25.62,103.76,39.21,170.667,39.21
		s136.633-13.59,170.667-39.21v297.81c-1.674,0.392-3.294,1.049-4.667,2.275c-4.406,3.917-4.802,10.656-0.896,15.063
		c3.688,4.156,5.563,8.208,5.563,12.063C426.667,459.604,361.74,490.667,256,490.667z"/>
</g>
<path style="opacity:0.2;fill:#FFFFFF;enable-background:new    ;" d="M256,490.667c-105.74,0-170.667-31.063-170.667-53.333
	c0-3.854,1.875-7.906,5.563-12.063c3.906-4.406,3.51-11.146-0.896-15.063c-1.375-1.223-2.995-1.88-4.667-2.273V110.124
	c34.034,25.62,103.76,39.21,170.667,39.21s136.633-13.59,170.667-39.21v297.81c-1.674,0.392-3.294,1.049-4.667,2.275
	c-4.406,3.917-4.802,10.656-0.896,15.063c3.688,4.156,5.563,8.208,5.563,12.063C426.667,459.604,361.74,490.667,256,490.667z"/>
<path style="opacity:0.1;enable-background:new    ;" d="M289.707,489.512c0.249-0.017,0.512-0.026,0.76-0.043
	c74.689-5.264,134.693-27.079,136.199-52.888c0-2.97-2.512-7.871-5.563-11.31c-2.641-2.979-3.155-6.987-1.953-10.505
	c-21.419-23.988-86.346-41.432-163.151-41.432s-141.732,17.444-163.151,41.432c1.202,3.518,0.688,7.526-1.953,10.505
	c-3.051,3.439-4.982,8.338-5.563,13.025c3.43,23.258,61.51,45.909,136.199,51.173c0.249,0.017,0.512,0.026,0.76,0.043
	c5.182,0.357,10.445,0.634,15.785,0.827c5.845,0.201,11.798,0.328,17.922,0.328c6.124,0,12.077-0.128,17.922-0.328
	C279.262,490.146,284.525,489.868,289.707,489.512z"/>
<g>
	<path style="fill:#303C42;" d="M173.615,369.469c-14.667,2.573-28.375,5.833-40.75,9.688c-5.625,1.76-8.76,7.74-7.01,13.365
		c1.427,4.563,5.635,7.49,10.188,7.49c1.052,0,2.115-0.156,3.177-0.479c11.5-3.583,24.313-6.625,38.083-9.042
		c5.802-1.021,9.677-6.552,8.667-12.354C184.938,372.333,179.406,368.438,173.615,369.469z"/>
	<path style="fill:#303C42;" d="M379.458,379.26c-12.302-3.854-26-7.125-40.729-9.74c-5.938-1.094-11.333,2.833-12.365,8.635
		c-1.031,5.802,2.833,11.333,8.635,12.365c13.833,2.458,26.646,5.521,38.083,9.094c1.063,0.333,2.135,0.49,3.188,0.49
		c4.542,0,8.75-2.917,10.177-7.479C388.208,387,385.073,381.021,379.458,379.26z"/>
	<path style="fill:#303C42;" d="M276.854,363.083c-13.573-0.552-27.771-0.563-41.354-0.021c-5.885,0.219-10.479,5.177-10.25,11.063
		c0.219,5.885,5.042,10.875,11.063,10.25c13.073-0.49,26.708-0.469,39.708,0.021c0.146,0.01,0.281,0.01,0.427,0.01
		c5.698,0,10.427-4.51,10.646-10.25C287.323,368.271,282.74,363.313,276.854,363.083z"/>
</g>
<linearGradient id="SVGID_1_" gradientUnits="userSpaceOnUse" x1="-45.4912" y1="639.5149" x2="-23.9151" y2="629.4539" gradientTransform="matrix(21.3333 0 0 -21.3333 996.3334 13791.667)">
	<stop  offset="0" style="stop-color:#FFFFFF;stop-opacity:0.2"/>
	<stop  offset="1" style="stop-color:#FFFFFF;stop-opacity:0"/>
</linearGradient>
<path style="fill:url(#SVGID_1_);" d="M256,0C162.927,0,64,26.167,64,74.667v362.667C64,485.833,162.927,512,256,512
	s192-26.167,192-74.667V74.667C448,26.167,349.073,0,256,0z"/>
<g>
</g>
<g>
</g>
<g>
</g>
<g>
</g>
<g>
</g>
<g>
</g>
<g>
</g>
<g>
</g>
<g>
</g>
<g>
</g>
<g>
</g>
<g>
</g>
<g>
</g>
<g>
</g>
<g>
</g>
</svg>
